DBRep_DrawableShape

CASCADE Topology V1, (c) Matra-Datavision
Locations 5
1
              1               0               0               0 
              0               1               0               0 
              0               0               1               0 
1
              1               0               0               0 
              0               1               0               0 
              0               0               1               0 
1
              1               0               0               0 
              0               1               0               0 
              0               0               1               0 
2  2 1 3 1 0
2  3 -1 2 -1 0
Curve2ds 4
1 0 0 1 0 
1 0 1 1 0 
1 6.2831853071795862 0 0 1 
1 0 0 0 1 
Curves 2
2 0 4.741403 0 0 1 0 1 0 0 0 0 -1 37
7 0 0  3 5 3  0 36.487319999999997 0  8.2411139999999996 36.487319999999997 0  1.992699 25.177574 0  19.860493000000002 4.741403 0  37 4.741403 0 
 0 4 0.5 1 1 4
Polygon3D 0
PolygonOnTriangulations 4
2 1 2 
p 0.299576528333333 1 0 6.28318530717959 
69 3 5 6 7 8 9 10 11 12 13 14 15 16 17 18 19 20 21 22 23 24 25 26 27 28 29 30 31 32 33 34 35 36 37 38 39 40 41 42 43 44 45 46 47 48 49 50 51 52 53 54 55 56 57 58 59 60 61 62 63 64 65 66 67 68 69 70 71 4 
p 0.299576528333333 1 0 0.0923997839291116 0.184799567858223 0.277199351787335 0.369599135716446 0.461998919645558 0.554398703574669 0.646798487503781 0.739198271432893 0.831598055362004 0.923997839291116 1.01639762322023 1.10879740714934 1.20119719107845 1.29359697500756 1.38599675893667 1.47839654286578 1.5707963267949 1.66319611072401 1.75559589465312 1.84799567858223 1.94039546251134 2.03279524644045 2.12519503036957 2.21759481429868 2.30999459822779 2.4023943821569 2.49479416608601 2.58719395001512 2.67959373394423 2.77199351787335 2.86439330180246 2.95679308573157 3.04919286966068 3.14159265358979 3.2339924375189 3.32639222144802 3.41879200537713 3.51119178930624 3.60359157323535 3.69599135716446 3.78839114109357 3.88079092502268 3.9731907089518 4.06559049288091 4.15799027681002 4.25039006073913 4.34278984466824 4.43518962859735 4.52758941252647 4.61998919645558 4.71238898038469 4.8047887643138 4.89718854824291 4.98958833217203 5.08198811610114 5.17438790003025 5.26678768395936 5.35918746788847 5.45158725181758 5.5439870357467 5.63638681967581 5.72878660360492 5.82118638753403 5.91358617146314 6.00598595539225 6.09838573932137 6.19078552325048 6.28318530717959 
15 2 85 86 87 88 89 90 91 92 93 94 95 96 97 4 
p 0.299576528333333 1 0 0.0469825779593063 0.0939651559186125 0.128215455250947 0.159928695373479 0.188470611483757 0.217012527594036 0.494106963164657 0.590435930036847 0.676546564673595 0.755861760297465 0.829171151084711 0.89794022104828 0.94897011052414 1 
15 1 72 73 74 75 76 77 78 79 80 81 82 83 84 3 
p 0.299576528333333 1 0 0.0469825779593063 0.0939651559186125 0.128215455250947 0.159928695373479 0.188470611483757 0.217012527594036 0.494106963164657 0.590435930036847 0.676546564673595 0.755861760297465 0.829171151084711 0.89794022104828 0.94897011052414 1 
Surfaces 1
7 0 0 0 0 1 0 
8 0 1
7 0 0  3 5 3  0 36.487319999999997 0  8.2411139999999996 36.487319999999997 0  1.992699 25.177574 0  19.860493000000002 4.741403 0  37 4.741403 0 
 0 4 0.5 1 1 4
Triangulations 1
447 795 1 0.297644711048889
0 36.48732 0 0 36.48732 0 37 4.741403 0 37 4.741403 0 36.8421645229163 4.741403 -3.41392930014217 36.3700046883044 4.741403 -6.7987321592131 35.5875487973943 4.741403 -10.1255306326671 34.5014724879612 4.741403 -13.3659416489247 33.1210417801373 4.741403 -16.4923191637319 31.4580340219957 4.741403 -19.4779900264622 29.5266374093689 4.741403 -22.2974815460325 27.3433299371644 4.741403 -24.9267388149226 24.9267388149226 4.741403 -27.3433299371644 22.2974815460325 4.741403 -29.5266374093689 19.4779900264622 4.741403 -31.4580340219957 16.4923191637319 4.741403 -33.1210417801373 13.3659416489247 4.741403 -34.5014724879612 10.1255306326671 4.741403 -35.5875487973943 6.79873215921311 4.741403 -36.3700046883044 3.41392930014218 4.741403 -36.8421645229163 1.04812469606488e-14 4.741403 -37 -3.41392930014216 4.741403 -36.8421645229163 -6.79873215921309 4.741403 -36.3700046883044 -10.1255306326671 4.741403 -35.5875487973943 -13.3659416489246 4.741403 -34.5014724879612 -16.4923191637319 4.741403 -33.1210417801373 -19.4779900264621 4.741403 -31.4580340219957 -22.2974815460325 4.741403 -29.5266374093689 -24.9267388149226 4.741403 -27.3433299371644 -27.3433299371644 4.741403 -24.9267388149226 -29.5266374093688 4.741403 -22.2974815460325 -31.4580340219957 4.741403 -19.4779900264622 -33.1210417801373 4.741403 -16.4923191637319 -34.5014724879612 4.741403 -13.3659416489247 -35.5875487973943 4.741403 -10.1255306326671 -36.3700046883044 4.741403 -6.79873215921314 -36.8421645229163 4.741403 -3.4139293001422 -37 4.741403 -3.73937946857498e-14 -36.8421645229163 4.741403 3.41392930014213 -36.3700046883044 4.741403 6.79873215921306 -35.5875487973943 4.741403 10.125530632667 -34.5014724879612 4.741403 13.3659416489246 -33.1210417801373 4.741403 16.4923191637319 -31.4580340219957 4.741403 19.4779900264621 -29.5266374093689 4.741403 22.2974815460325 -27.3433299371644 4.741403 24.9267388149226 -24.9267388149227 4.741403 27.3433299371644 -22.2974815460325 4.741403 29.5266374093688 -19.4779900264622 4.741403 31.4580340219957 -16.4923191637319 4.741403 33.1210417801373 -13.3659416489247 4.741403 34.5014724879612 -10.1255306326671 4.741403 35.5875487973943 -6.79873215921309 4.741403 36.3700046883044 -3.41392930014217 4.741403 36.8421645229163 -6.79678973526781e-15 4.741403 37 3.41392930014219 4.741403 36.8421645229163 6.79873215921314 4.741403 36.3700046883044 10.1255306326671 4.741403 35.5875487973943 13.3659416489247 4.741403 34.5014724879612 16.492319163732 4.741403 33.1210417801373 19.4779900264622 4.741403 31.4580340219957 22.2974815460325 4.741403 29.5266374093688 24.9267388149227 4.741403 27.3433299371644 27.3433299371644 4.741403 24.9267388149226 29.5266374093689 4.741403 22.2974815460324 31.4580340219958 4.741403 19.4779900264621 33.1210417801373 4.741403 16.4923191637319 34.5014724879612 4.741403 13.3659416489246 35.5875487973943 4.741403 10.125530632667 36.3700046883044 4.741403 6.798732159213 36.8421645229163 4.741403 3.41392930014214 2.03651548236454 36.340330402671 0 3.55752227062758 35.9105562780347 0 4.39109248358375 35.4286610310156 0 4.98884527915112 34.8620785182087 0 5.4063328532673 34.2575714309778 0 5.72980437457318 33.5673637930455 0 7.9215251435441 23.1756311903314 0 10.2025589376923 18.4395473708788 0 13.4496213006474 14.1859016816045 0 17.5091632923794 10.5946914804395 0 22.2191838071976 7.82116490437334 0 27.5116186227635 5.91230140991079 0 32.0063370559924 5.04741571121426 0 2.03651548236454 36.340330402671 0 3.55752227062758 35.9105562780347 0 4.39109248358375 35.4286610310156 0 4.98884527915112 34.8620785182087 0 5.4063328532673 34.2575714309778 0 5.72980437457318 33.5673637930455 0 7.9215251435441 23.1756311903314 0 10.2025589376923 18.4395473708788 0 13.4496213006474 14.1859016816045 0 17.5091632923794 10.5946914804395 0 22.2191838071976 7.82116490437334 0 27.5116186227635 5.91230140991079 0 32.0063370559924 5.04741571121426 0 3.60472094624043 35.8349175750291 -0.925535030298001 4.9223483704312 34.7466496225439 -1.26384425205392 3.26130080684421 35.8349175750291 -1.79291529076264 4.45339846037137 34.7466496225439 -2.44827652165728 2.71296114352862 35.8349175750291 -2.54764008962748 5.7546094546659 32.9304474477771 -1.47753257891773 3.70462514659257 34.7466496225439 -3.47887457327371 1.99415615399198 35.8349175750291 -3.14228729209618 5.20637040632756 32.9304474477771 -2.86222635191734 2.72307661019513 34.7466496225439 -4.29088214104566 1.15005099930671 35.8349175750291 -3.53949302747821 4.33099595766871 32.9304474477771 -4.06707591669381 1.5704271556039 34.7466496225439 -4.83327780313508 0.233683910743288 35.8349175750291 -3.71429939859901 3.1834891047006 32.9304474477771 -5.01637614396549 7.62210869322878 23.3261209257546 -1.95702488640063 0.31910198719901 34.7466496225439 -5.07198084530118 -0.697366397361439 35.8349175750291 -3.65572267826819 1.83595192323022 32.9304474477771 -5.65047900917088 6.89595383437576 23.3261209257546 -3.79108270175465 -0.952273532636609 34.7466496225439 -4.99199267751628 -1.58459860998574 35.8349175750291 -3.36744345725425 0.373055130264427 32.9304474477771 -5.92954149722193 10.2173162949982 17.8938025262298 -2.6233609446296 5.73650083456479 23.3261209257546 -5.38693284833054 -2.1638142041996 34.7466496225439 -4.59833925053823 -2.37226466419861 35.8349175750291 -2.86757537923031 -1.11328208853667 32.9304474477771 -5.83602908567434 9.24391717794778 17.8938025262298 -5.08188647306145 4.21660238994382 23.3261209257546 -6.64430219229267 14.1901183529189 12.972262411925 -3.64340314148274 -3.23939447136076 34.7466496225438 -3.91575525694007 -3.01087260498075 35.8349175750291 -2.1875269939248 -2.5296676993499 32.9304474477771 -5.37581750326025 7.68968874785766 17.8938025262298 -7.22109838451979 2.43175930958386 23.3261209257546 -7.48418559347891 12.8382321749082 12.972262411925 -7.05787786408668 -4.11143167022682 34.7466496225438 -2.9871299594079 -3.46029634677708 35.8349175750291 -1.37002824242948 19.1994049854266 9.08220736364769 -4.92956934528412 -3.78710498514596 32.9304474477771 -4.57782353624254 5.6522888930427 17.8938025262298 -8.9065821271366 0.494119848417613 23.3261209257546 -7.85381008891766 10.6796726536328 12.972262411925 -10.028880163431 -4.72513249646457 34.7466496225438 -1.87081230063063 -3.69229694302565 35.8349175750291 -0.466445577850898 17.3702863283233 9.08220736364769 -9.54939571891619 -4.80658453672744 32.9304474477771 -3.49218808038544 25.035137230026 6.3978935162985 -6.42793071648805 3.25973493941343 17.8938025262298 -10.0324325585877 -1.4745669800704 23.3261209257546 -7.7299508121767 7.85007002244118 12.972262411925 -12.3697310384657 -5.04193587012773 34.7466496225438 -0.636944624638378 -3.69229694302565 35.8349175750291 0.466445577850893 14.449728697767 9.08220736364769 -13.569198439308 -5.52404870448497 32.9304474477771 -2.18712560406837 30.0901192649097 5.17850979039351 -7.72582950548904 22.6500509929607 6.3978935162985 -12.4519709057836 0.662359851074322 17.8938025262298 -10.5279083556767 -3.35060134212259 23.3261209257546 -7.12039029713621 4.52721862120153 12.972262411925 -13.9333462196652 -5.04193587012773 34.7466496225439 0.63694462463837 -3.46029634677708 35.8349175750291 1.37002824242948 10.6212414707452 9.08220736364769 -16.7363985177371 -5.8944165761097 32.9304474477771 -0.74463798236238 27.2234471683688 5.17850979039351 -14.9662167295348 18.8417787509472 6.3978935162985 -17.6936079679233 -1.97663374269692 17.8938025262298 -10.3618769518401 -5.01610509919946 23.3261209257546 -6.06342947276294 0.919905424046389 12.9722624119251 -14.6214780146202 -4.72513249646458 34.7466496225439 1.87081230063062 -3.01087260498075 35.8349175750291 2.18752699392479 6.12538257992284 9.08220736364769 -18.8519891251286 -5.8944165761097 32.9304474477771 0.74463798236237 22.6462257654042 5.17850979039351 -21.2662215145691 13.8496082547967 6.3978935162985 -21.8234905689001 -4.49142816886412 17.8938025262298 -9.54477071080164 -6.36642852494953 23.3261209257546 -4.62548107488228 -2.74520881407708 12.972262411925 -14.3908885718821 -4.11143167022683 34.7466496225439 2.9871299594079 -2.37226466419862 35.8349175750291 2.86757537923031 1.24464337402261 9.08220736364769 -19.7830399230222 -5.52404870448497 32.9304474477771 2.18712560406836 16.6460587106068 5.17850979039351 -26.2299913901512 7.98721593670115 6.3978935162985 -24.582122996249 -6.72400964486426 17.8938025262298 -8.12793142279236 -7.31672583239074 23.3261209257546 -2.89689668973732 -6.23783148624031 12.9722624119251 -13.2560666741866 -3.23939447136076 34.7466496225439 3.91575525694006 -1.58459860998575 35.8349175750291 3.36744345725425 -3.71430135254558 9.08220736364769 -19.4710495656209 -4.80658453672745 32.9304474477771 3.49218808038543 9.59995856710052 5.17850979039351 -29.5456344395298 1.62295746637725 6.3978935162985 -25.7961702290192 -8.53409686569994 17.8938025262298 -6.20038431104827 -7.80728634674756 23.3261209257546 -0.986289631535411 -9.33850826498361 12.972262411925 -11.2883173549491 -2.1638142041996 34.7466496225439 4.59833925053822 -0.69736639736144 35.8349175750291 3.65572267826819 -8.43986286488851 9.08220736364769 -17.9356215545006 -3.78710498514596 32.9304474477771 4.57782353624253 1.9506577206454 5.17850979039351 -31.0048166158302 -4.84327739037917 6.3978935162985 -25.3893492146224 -9.80795539425092 17.8938025262298 -3.88324424962264 -7.80728634674756 23.3261209257546 0.986289631535399 -11.852412224807 12.972262411925 -8.61128154077296 -0.952273532636611 34.7466496225439 4.99199267751628 0.233683910743289 35.8349175750291 3.71429939859901 -12.6351167537861 9.08220736364769 -15.273232478509 -2.5296676993499 32.9304474477771 5.37581750326025 -5.82121012441515 5.17850979039351 -30.5158521364189 -11.0051913163698 6.3978935162985 -23.3872220135762 -10.4655440142444 17.8938025262298 -1.32210567041989 -7.31672583239075 23.3261209257546 2.89689668973731 -13.6215855344229 12.972262411925 -5.3931672373119 0.319101987199011 34.7466496225439 5.07198084530118 1.15005099930671 35.8349175750291 3.53949302747821 -16.0364597883345 9.08220736364769 -11.6511700348729 -1.11328208853667 32.9304474477771 5.83602908567434 -13.2273099284454 5.17850979039351 -28.1094644378228 -16.4756085976905 6.3978935162985 -19.9155896412311 -10.4655440142444 17.8938025262298 1.32210567041987 -6.36642852494953 23.3261209257546 4.62548107488226 -14.5348645282236 12.972262411925 -1.83618040164889 1.5704271556039 34.7466496225439 4.83327780313508 1.99415615399198 35.8349175750291 3.14228729209618 -18.4301730764083 9.08220736364769 -7.29702172793972 0.373055130264428 32.9304474477771 5.92954149722193 -19.8022892030284 5.17850979039351 -23.9368557092196 -20.9108027977684 6.3978935162985 -15.1925875273123 -9.80795539425093 17.8938025262298 3.88324424962263 -5.01610509919946 23.3261209257546 6.06342947276294 -14.5348645282236 12.972262411925 1.83618040164886 2.72307661019513 34.7466496225439 4.29088214104566 2.71296114352862 35.8349175750291 2.54764008962747 -19.6658508086561 9.08220736364769 -2.48437470927144 1.83595192323022 32.9304474477771 5.65047900917088 -25.1330178192599 5.17850979039351 -18.2602063028089 -24.0320943535094 6.3978935162985 -9.51497926462397 -8.53409686569995 17.8938025262298 6.20038431104825 -3.35060134212259 23.3261209257546 7.1203902971362 -13.6215855344229 12.972262411925 5.39316723731188 3.70462514659258 34.7466496225439 3.47887457327371 3.26130080684422 35.8349175750291 1.79291529076264 -19.6658508086561 9.08220736364769 2.48437470927141 3.18348910470061 32.9304474477771 5.01637614396549 -28.8845464931335 5.17850979039351 -11.4362009780516 -25.643361037159 6.3978935162985 -3.23950986109346 -6.72400964486427 17.8938025262298 8.12793142279235 -1.4745669800704 23.3261209257546 7.7299508121767 -11.8524122248071 12.972262411925 8.61128154077294 4.45339846037138 34.7466496225439 2.44827652165727 3.60472094624043 35.8349175750291 0.925535030297993 -18.4301730764083 9.08220736364769 7.29702172793969 4.33099595766872 32.9304474477771 4.0670759166938 -30.8211528809124 5.17850979039351 -3.89361708643816 -25.643361037159 6.3978935162985 3.23950986109342 -4.49142816886413 17.8938025262298 9.54477071080164 0.494119848417615 23.3261209257546 7.85381008891766 -9.33850826498363 12.972262411925 11.2883173549491 4.9223483704312 34.7466496225439 1.26384425205391 -16.0364597883345 9.08220736364769 11.6511700348729 5.20637040632757 32.9304474477771 2.86222635191733 -30.8211528809124 5.17850979039351 3.89361708643811 -24.0320943535095 6.3978935162985 9.51497926462393 -1.97663374269692 17.8938025262298 10.3618769518401 2.43175930958387 23.3261209257546 7.48418559347891 -6.23783148624032 12.972262411925 13.2560666741866 -12.6351167537862 9.08220736364769 15.273232478509 5.75460945466591 32.9304474477771 1.47753257891771 -28.8845464931335 5.17850979039351 11.4362009780515 -20.9108027977685 6.3978935162985 15.1925875273122 0.662359851074324 17.8938025262298 10.5279083556767 4.21660238994382 23.3261209257546 6.64430219229267 -2.74520881407709 12.972262411925 14.3908885718821 -8.43986286488852 9.08220736364769 17.9356215545005 -25.1330178192599 5.17850979039351 18.2602063028088 -16.4756085976905 6.3978935162985 19.9155896412311 3.25973493941344 17.8938025262298 10.0324325585877 5.73650083456479 23.3261209257546 5.38693284833053 0.919905424046392 12.972262411925 14.6214780146202 -3.71430135254559 9.08220736364769 19.4710495656209 -19.8022892030285 5.17850979039351 23.9368557092196 -11.0051913163698 6.3978935162985 23.3872220135762 5.65228889304271 17.8938025262298 8.9065821271366 6.89595383437577 23.3261209257546 3.79108270175463 4.52721862120154 12.972262411925 13.9333462196652 1.24464337402262 9.08220736364769 19.7830399230222 -13.2273099284454 5.17850979039351 28.1094644378228 -4.84327739037917 6.3978935162985 25.3893492146224 7.68968874785767 17.8938025262298 7.22109838451978 7.62210869322878 23.3261209257546 1.95702488640062 7.85007002244119 12.972262411925 12.3697310384657 6.12538257992285 9.08220736364769 18.8519891251286 -5.82121012441515 5.17850979039351 30.5158521364189 1.62295746637726 6.3978935162985 25.7961702290192 9.24391717794779 17.8938025262298 5.08188647306144 10.6796726536328 12.972262411925 10.028880163431 10.6212414707452 9.08220736364769 16.736398517737 1.9506577206454 5.17850979039351 31.0048166158302 7.98721593670117 6.3978935162985 24.5821229962489 10.2173162949982 17.8938025262298 2.62336094462958 12.8382321749082 12.972262411925 7.05787786408666 14.449728697767 9.08220736364769 13.569198439308 9.59995856710054 5.17850979039351 29.5456344395298 13.8496082547967 6.3978935162985 21.8234905689001 14.1901183529189 12.972262411925 3.64340314148271 17.3702863283233 9.08220736364769 9.54939571891616 16.6460587106068 5.17850979039351 26.2299913901512 18.8417787509472 6.3978935162985 17.6936079679233 19.1994049854266 9.08220736364769 4.92956934528408 22.6462257654042 5.17850979039351 21.2662215145691 22.6500509929608 6.3978935162985 12.4519709057836 27.2234471683688 5.17850979039351 14.9662167295348 25.035137230026 6.3978935162985 6.427930716488 30.0901192649097 5.17850979039351 7.72582950548898 2.13297616761445 36.3208397510961 -0.269457553495095 2.08238502695584 36.3208397510961 -0.534665600405432 1.99895343046562 36.3208397510961 -0.791441651403627 1.88399714426006 36.3208397510961 -1.03573619477486 1.73932909764418 36.3208397510961 -1.26369655963568 1.56723079213361 36.3208397510961 -1.47172767485532 1.37041632081279 36.3208397510961 -1.65654876547499 1.15198956546573 36.3208397510961 -1.81524509248885 0.915395246506071 36.3208397510961 -1.9453139200193 0.664364597678392 36.3208397510961 -2.04470398495685 0.402856522273151 36.3208397510961 -2.11184784660466 0.134995158856842 36.3208397510961 -2.14568660615477 -0.13499515885684 36.3208397510961 -2.14568660615477 15.8600890719972 10.9289654672488 -6.27945348563037 13.8001786303384 10.9289654672488 -10.0264166690116 21.0844389907422 7.61138697972392 -8.34791994622158 10.8731522118286 10.9289654672488 -13.1433832184977 18.3459892987897 7.61138697972392 -13.329141443902 26.3766244394355 5.69903609690166 -10.443244393111 7.26292565119307 10.9289654672488 -15.4345026623835 14.4547936273654 7.61138697972392 -17.4728439635089 22.9508250096934 5.69903609690166 -16.6747504223513 3.19634276072101 10.9289654672488 -16.7558155398616 9.65535011132144 7.61138697972392 -20.5186634362635 18.0829408373622 5.69903609690166 -21.858520557113 -1.07107810073354 10.9289654672488 -17.0242989033913 4.2492254378894 7.61138697972392 -22.2752198229523 12.0788389878152 5.69903609690166 -25.668839455256 -5.27119918596928 10.9289654672488 -16.2230829558293 -1.42389369736322 7.61138697972392 -22.632142225637 5.31577926180144 5.69903609690166 -27.8662907670374 -9.14011144023605 10.9289654672488 -14.402511041827 -7.00754435489582 7.61138697972392 -21.5670038970883 -1.78129042529991 5.69903609690166 -28.3128005448774 0.134995158856839 36.3208397510961 2.14568660615477 0.40285652227315 36.3208397510961 2.11184784660466 -12.4347168777343 10.9289654672488 -11.6769763903363 -12.1508852286649 7.61138697972392 -19.1467313957935 -8.76643508385174 5.69903609690166 -26.9803129372861 0.664364597678391 36.3208397510961 2.04470398495685 0.915395246506069 36.3208397510961 1.9453139200193 -14.9480033221149 10.9289654672488 -8.21773436732564 -16.5307412956871 7.61138697972392 -15.5233993441487 -15.2007523853922 5.69903609690166 -23.9525530411951 1.15198956546573 36.3208397510961 1.81524509248885 1.37041632081279 36.3208397510961 1.65654876547499 -16.5220517428562 10.9289654672488 -4.24214187130304 -19.8719100912876 7.61138697972391 -10.9246750206418 -20.6799505101018 5.69903609690166 -19.4197661461979 1.56723079213361 36.3208397510961 1.47172767485532 1.73932909764418 36.3208397510961 1.26369655963568 -17.0579588887382 10.9289654672488 -1.72395084444172e-14 -21.9644536920794 7.61138697972392 -5.6395131874438 -24.8597512887238 5.69903609690166 -13.6667639233312 1.88399714426006 36.3208397510961 1.03573619477486 1.99895343046562 36.3208397510961 0.791441651403627 -16.5220517428563 10.9289654672488 4.24214187130302 -22.6768898877878 7.61138697972392 -2.29182422858187e-14 -27.4775224661056 5.69903609690166 -7.05502866031975 2.08238502695584 36.3208397510961 0.53466560040543 2.13297616761445 36.3208397510961 0.269457553495094 -14.9480033221149 10.9289654672488 8.21773436732561 -21.9644536920794 7.61138697972392 5.63951318744377 -28.3687798516833 5.69903609690166 -2.86707116015968e-14 -12.4347168777343 10.9289654672488 11.6769763903363 -19.8719100912876 7.61138697972392 10.9246750206418 -27.4775224661056 5.69903609690166 7.05502866031971 -9.14011144023607 10.9289654672488 14.402511041827 -16.5307412956872 7.61138697972392 15.5233993441487 -24.8597512887239 5.69903609690166 13.6667639233311 -5.27119918596929 10.9289654672488 16.2230829558293 -12.150885228665 7.61138697972392 19.1467313957935 -20.6799505101018 5.69903609690166 19.4197661461979 -1.07107810073354 10.9289654672488 17.0242989033913 -7.00754435489582 7.61138697972392 21.5670038970883 -15.2007523853922 5.69903609690166 23.9525530411951 3.19634276072101 10.9289654672488 16.7558155398616 -1.42389369736322 7.61138697972392 22.632142225637 -8.76643508385175 5.69903609690166 26.9803129372861 7.26292565119309 10.9289654672488 15.4345026623835 4.24922543788941 7.61138697972391 22.2752198229523 -1.78129042529991 5.69903609690166 28.3128005448774 10.8731522118286 10.9289654672488 13.1433832184977 9.65535011132146 7.61138697972392 20.5186634362635 5.31577926180145 5.69903609690166 27.8662907670374 13.8001786303384 10.9289654672488 10.0264166690116 14.4547936273654 7.61138697972392 17.4728439635089 12.0788389878153 5.69903609690166 25.668839455256 15.8600890719973 10.9289654672488 6.27945348563034 18.3459892987897 7.61138697972392 13.329141443902 18.0829408373622 5.69903609690166 21.858520557113 21.0844389907422 7.61138697972392 8.34791994622154 22.9508250096934 5.69903609690166 16.6747504223513 26.3766244394356 5.69903609690166 10.443244393111 1.09730672314896 36.4452774824414 -0.356536567159884 1.07275432270353 36.4452774824414 -0.424733482917158 1.04396825104123 36.4452774824414 -0.491254169659627 1.01106211363579 36.4452774824414 -0.555836100627133 0.974165775978179 36.4452774824414 -0.618224400442822 0.933424851056787 36.4452774824414 -0.678172850989825 0.889000124689525 36.4452774824414 -0.735444863121677 0.841066920975638 36.4452774824414 -0.789814410371585 0.789814410371585 36.4452774824414 -0.841066920975637 -1.10493605479565 36.1165415379601 -2.79074990968917 -1.44599701422582 36.1165415379601 -2.63025880446535 -1.7642537369449 36.1165415379601 -2.42828694665467 -2.05468712431826 36.1165415379601 -2.18801955310693 -2.31271686833053 36.1165415379601 -1.91324578414717 -2.14568660615477 36.3208397510961 0.13499515885684 -0.789814410371585 36.4452774824414 0.841066920975637 -1.91324578414717 36.1165415379601 2.31271686833053 -0.696192967956896 36.4128280904633 1.33169432343487 -1.60829898625378 36.1165415379601 2.53427368577914 -1.27798835259592 36.1165415379601 2.71586349330128 -0.92752307918438 36.1165415379601 2.85462251115586 0.841066920975637 36.4452774824414 0.789814410371585 0.889000124689525 36.4452774824414 0.735444863121677 0.933424851056787 36.4452774824414 0.678172850989826 0.974165775978178 36.4452774824414 0.618224400442822 1.01106211363579 36.4452774824414 0.555836100627133 1.04396825104123 36.4452774824414 0.491254169659628 1.07275432270353 36.4452774824414 0.424733482917158 1.09730672314896 36.4452774824414 0.356536567159885 -0.0164888807900469 36.4685718506654 -0.78717094766634 -0.237259407773363 36.4767565636938 -0.54827414196513 -0.841066920975637 36.4452774824414 -0.789814410371585 -1.61268554176822 36.3208397510961 -1.42177355725816 -1.57196609945937 36.3931995977424 -0.565942619720903 -2.14460394755596 36.2285147840022 1.45747133772858 0.0362409978009606 36.4452774824414 1.15320724870617 0.237259407773362 36.4767565636938 0.54827414196513 -0.867507223605587 36.4636116760921 -0.151404247711856 -1.15320724870617 36.4452774824414 0.0362409978009606 -0.54827414196513 36.4767565636938 0.237259407773362 0 0 6.28318530717959 0 0 1 6.28318530717959 1 0.0923997839291116 1 0.184799567858223 1 0.277199351787335 1 0.369599135716446 1 0.461998919645558 1 0.554398703574669 1 0.646798487503781 1 0.739198271432893 1 0.831598055362004 1 0.923997839291116 1 1.01639762322023 1 1.10879740714934 1 1.20119719107845 1 1.29359697500756 1 1.38599675893667 1 1.47839654286578 1 1.5707963267949 1 1.66319611072401 1 1.75559589465312 1 1.84799567858223 1 1.94039546251134 1 2.03279524644045 1 2.12519503036957 1 2.21759481429868 1 2.30999459822779 1 2.4023943821569 1 2.49479416608601 1 2.58719395001512 1 2.67959373394423 1 2.77199351787335 1 2.86439330180246 1 2.95679308573157 1 3.04919286966068 1 3.14159265358979 1 3.2339924375189 1 3.32639222144802 1 3.41879200537713 1 3.51119178930624 1 3.60359157323535 1 3.69599135716446 1 3.78839114109357 1 3.88079092502268 1 3.9731907089518 1 4.06559049288091 1 4.15799027681002 1 4.25039006073913 1 4.34278984466824 1 4.43518962859735 1 4.52758941252647 1 4.61998919645558 1 4.71238898038469 1 4.8047887643138 1 4.89718854824291 1 4.98958833217202 1 5.08198811610114 1 5.17438790003025 1 5.26678768395936 1 5.35918746788847 1 5.45158725181758 1 5.5439870357467 1 5.63638681967581 1 5.72878660360492 1 5.82118638753403 1 5.91358617146314 1 6.00598595539225 1 6.09838573932137 1 6.19078552325048 1 0 0.0469825779593063 0 0.0939651559186125 0 0.128215455250947 0 0.159928695373479 0 0.188470611483757 0 0.217012527594036 0 0.494106963164657 0 0.590435930036847 0 0.676546564673595 0 0.755861760297465 0 0.829171151084711 0 0.89794022104828 0 0.94897011052414 6.28318530717959 0.0469825779593063 6.28318530717959 0.0939651559186125 6.28318530717959 0.128215455250947 6.28318530717959 0.159928695373479 6.28318530717959 0.188470611483757 6.28318530717959 0.217012527594036 6.28318530717959 0.494106963164657 6.28318530717959 0.590435930036847 6.28318530717959 0.676546564673595 6.28318530717959 0.755861760297465 6.28318530717959 0.829171151084711 6.28318530717959 0.89794022104828 6.28318530717959 0.94897011052414 0.251327412287183 0.100062964664263 0.251327412287183 0.165714275780486 0.502654824574367 0.100062964664263 0.502654824574367 0.165714275780486 0.75398223686155 0.100062964664263 0.251327412287183 0.240761499278684 0.75398223686155 0.165714275780486 1.00530964914873 0.100062964664263 0.502654824574367 0.240761499278684 1.00530964914873 0.165714275780486 1.25663706143592 0.100062964664263 0.75398223686155 0.240761499278684 1.25663706143592 0.165714275780486 1.5079644737231 0.100062964664263 1.00530964914873 0.240761499278684 0.251327412287183 0.490918910939342 1.5079644737231 0.165714275780486 1.75929188601028 0.100062964664263 1.25663706143592 0.240761499278684 0.502654824574367 0.490918910939342 1.75929188601028 0.165714275780486 2.01061929829747 0.100062964664263 1.5079644737231 0.240761499278684 0.251327412287183 0.601327229589089 0.75398223686155 0.490918910939342 2.01061929829747 0.165714275780486 2.26194671058465 0.100062964664263 1.75929188601028 0.240761499278684 0.502654824574367 0.601327229589089 1.00530964914873 0.490918910939342 0.251327412287183 0.702252612975877 2.26194671058465 0.165714275780486 2.51327412287183 0.100062964664263 2.01061929829747 0.240761499278684 0.75398223686155 0.601327229589089 1.25663706143592 0.490918910939342 0.502654824574367 0.702252612975877 2.51327412287183 0.165714275780486 2.76460153515902 0.100062964664263 0.251327412287183 0.793693483037429 2.26194671058465 0.240761499278684 1.00530964914873 0.601327229589089 1.5079644737231 0.490918910939342 0.75398223686155 0.702252612975877 2.76460153515902 0.165714275780486 3.0159289474462 0.100062964664263 0.502654824574367 0.793693483037429 2.51327412287183 0.240761499278684 0.251327412287183 0.877488614141002 1.25663706143592 0.601327229589089 1.75929188601028 0.490918910939342 1.00530964914873 0.702252612975877 3.0159289474462 0.165714275780486 3.26725635973338 0.100062964664263 0.75398223686155 0.793693483037429 2.76460153515902 0.240761499278684 0.251327412287183 0.938744307070501 0.502654824574367 0.877488614141002 1.5079644737231 0.601327229589089 2.01061929829747 0.490918910939342 1.25663706143592 0.702252612975877 3.26725635973338 0.165714275780486 3.51858377202057 0.100062964664263 1.00530964914873 0.793693483037429 3.0159289474462 0.240761499278684 0.502654824574367 0.938744307070501 0.75398223686155 0.877488614141002 1.75929188601028 0.601327229589089 2.26194671058465 0.490918910939342 1.5079644737231 0.702252612975877 3.51858377202057 0.165714275780486 3.76991118430775 0.100062964664263 1.25663706143592 0.793693483037429 3.26725635973338 0.240761499278684 0.75398223686155 0.938744307070501 1.00530964914873 0.877488614141002 2.01061929829747 0.601327229589089 2.51327412287183 0.490918910939342 1.75929188601028 0.702252612975877 3.76991118430775 0.165714275780486 4.02123859659493 0.100062964664263 1.5079644737231 0.793693483037429 3.51858377202057 0.240761499278684 1.00530964914873 0.938744307070501 1.25663706143592 0.877488614141002 2.26194671058465 0.601327229589089 2.76460153515902 0.490918910939342 2.01061929829747 0.702252612975877 4.02123859659493 0.165714275780486 4.27256600888212 0.100062964664263 1.75929188601028 0.793693483037429 3.76991118430775 0.240761499278684 1.25663706143592 0.938744307070501 1.5079644737231 0.877488614141002 2.51327412287183 0.601327229589089 3.0159289474462 0.490918910939342 2.26194671058465 0.702252612975877 4.27256600888212 0.165714275780486 4.5238934211693 0.100062964664263 2.01061929829747 0.793693483037429 4.02123859659493 0.240761499278684 1.5079644737231 0.938744307070501 1.75929188601028 0.877488614141002 2.76460153515902 0.601327229589089 3.26725635973338 0.490918910939342 2.51327412287183 0.702252612975877 4.5238934211693 0.165714275780486 4.77522083345649 0.100062964664263 2.26194671058465 0.793693483037429 4.27256600888212 0.240761499278684 1.75929188601028 0.938744307070501 2.01061929829747 0.877488614141002 3.0159289474462 0.601327229589089 3.51858377202057 0.490918910939342 2.76460153515902 0.702252612975877 4.77522083345649 0.165714275780486 5.02654824574367 0.100062964664263 2.51327412287183 0.793693483037429 4.5238934211693 0.240761499278684 2.01061929829747 0.938744307070501 2.26194671058465 0.877488614141002 3.26725635973338 0.601327229589089 3.76991118430775 0.490918910939342 3.0159289474462 0.702252612975877 5.02654824574367 0.165714275780486 5.27787565803085 0.100062964664263 2.76460153515902 0.793693483037429 4.77522083345649 0.240761499278684 2.26194671058465 0.938744307070501 2.51327412287183 0.877488614141002 3.51858377202057 0.601327229589089 4.02123859659493 0.490918910939342 3.26725635973338 0.702252612975877 5.27787565803085 0.165714275780486 5.52920307031804 0.100062964664263 3.0159289474462 0.793693483037429 5.02654824574367 0.240761499278684 2.51327412287183 0.938744307070501 2.76460153515902 0.877488614141002 3.76991118430775 0.601327229589089 4.27256600888212 0.490918910939342 3.51858377202057 0.702252612975877 5.52920307031804 0.165714275780486 5.78053048260522 0.100062964664263 3.26725635973338 0.793693483037429 5.27787565803085 0.240761499278684 2.76460153515902 0.938744307070501 3.0159289474462 0.877488614141002 4.02123859659493 0.601327229589089 4.5238934211693 0.490918910939342 3.76991118430775 0.702252612975877 5.78053048260522 0.165714275780486 6.03185789489241 0.100062964664263 3.51858377202057 0.793693483037429 5.52920307031804 0.240761499278684 3.0159289474462 0.938744307070501 3.26725635973338 0.877488614141002 4.27256600888212 0.601327229589089 4.77522083345649 0.490918910939342 4.02123859659493 0.702252612975877 6.03185789489241 0.165714275780486 3.76991118430775 0.793693483037429 5.78053048260522 0.240761499278684 3.26725635973338 0.938744307070501 3.51858377202057 0.877488614141002 4.5238934211693 0.601327229589089 5.02654824574367 0.490918910939342 4.27256600888212 0.702252612975877 4.02123859659493 0.793693483037429 6.03185789489241 0.240761499278684 3.51858377202057 0.938744307070501 3.76991118430775 0.877488614141002 4.77522083345649 0.601327229589089 5.27787565803085 0.490918910939342 4.5238934211693 0.702252612975877 4.27256600888212 0.793693483037429 3.76991118430775 0.938744307070501 4.02123859659493 0.877488614141002 5.02654824574367 0.601327229589089 5.52920307031804 0.490918910939342 4.77522083345649 0.702252612975877 4.5238934211693 0.793693483037429 4.02123859659493 0.938744307070501 4.27256600888212 0.877488614141002 5.27787565803085 0.601327229589089 5.78053048260522 0.490918910939342 5.02654824574367 0.702252612975877 4.77522083345649 0.793693483037429 4.27256600888212 0.938744307070501 4.5238934211693 0.877488614141002 5.52920307031804 0.601327229589089 6.03185789489241 0.490918910939342 5.27787565803085 0.702252612975877 5.02654824574367 0.793693483037429 4.5238934211693 0.938744307070501 4.77522083345649 0.877488614141002 5.78053048260522 0.601327229589089 5.52920307031804 0.702252612975877 5.27787565803085 0.793693483037429 4.77522083345649 0.938744307070501 5.02654824574367 0.877488614141002 6.03185789489241 0.601327229589089 5.78053048260522 0.702252612975877 5.52920307031804 0.793693483037429 5.02654824574367 0.938744307070501 5.27787565803085 0.877488614141002 6.03185789489241 0.702252612975877 5.78053048260522 0.793693483037429 5.27787565803085 0.938744307070501 5.52920307031804 0.877488614141002 6.03185789489241 0.793693483037429 5.52920307031804 0.938744307070501 5.78053048260522 0.877488614141002 5.78053048260522 0.938744307070501 6.03185789489241 0.877488614141002 6.03185789489241 0.938744307070501 0.125663706143592 0.0500314823321316 0.251327412287183 0.0500314823321316 0.376991118430775 0.0500314823321316 0.502654824574367 0.0500314823321316 0.628318530717959 0.0500314823321316 0.75398223686155 0.0500314823321316 0.879645943005142 0.0500314823321316 1.00530964914873 0.0500314823321316 1.13097335529233 0.0500314823321316 1.25663706143592 0.0500314823321316 1.38230076757951 0.0500314823321316 1.5079644737231 0.0500314823321316 1.63362817986669 0.0500314823321316 0.376991118430775 0.747973048006653 0.628318530717959 0.747973048006653 0.376991118430775 0.835591048589215 0.879645943005142 0.747973048006653 0.628318530717959 0.835591048589215 0.376991118430775 0.908116460605751 1.13097335529233 0.747973048006653 0.879645943005142 0.835591048589215 0.628318530717959 0.908116460605751 1.38230076757951 0.747973048006653 1.13097335529233 0.835591048589215 0.879645943005142 0.908116460605751 1.63362817986669 0.747973048006653 1.38230076757951 0.835591048589215 1.13097335529233 0.908116460605751 1.88495559215388 0.747973048006653 1.63362817986669 0.835591048589215 1.38230076757951 0.908116460605751 2.13628300444106 0.747973048006653 1.88495559215388 0.835591048589215 1.63362817986669 0.908116460605751 4.77522083345649 0.0500314823321316 4.90088453960008 0.0500314823321316 2.38761041672824 0.747973048006653 2.13628300444106 0.835591048589215 1.88495559215388 0.908116460605751 5.02654824574367 0.0500314823321316 5.15221195188726 0.0500314823321316 2.63893782901543 0.747973048006653 2.38761041672824 0.835591048589215 2.13628300444106 0.908116460605751 5.27787565803085 0.0500314823321316 5.40353936417444 0.0500314823321316 2.89026524130261 0.747973048006653 2.63893782901543 0.835591048589215 2.38761041672824 0.908116460605751 5.52920307031804 0.0500314823321316 5.65486677646163 0.0500314823321316 3.14159265358979 0.747973048006653 2.89026524130261 0.835591048589215 2.63893782901543 0.908116460605751 5.78053048260522 0.0500314823321316 5.90619418874881 0.0500314823321316 3.39292006587698 0.747973048006653 3.14159265358979 0.835591048589215 2.89026524130261 0.908116460605751 6.0318578948924 0.0500314823321316 6.157521601036 0.0500314823321316 3.64424747816416 0.747973048006653 3.39292006587698 0.835591048589215 3.14159265358979 0.908116460605751 3.89557489045134 0.747973048006653 3.64424747816416 0.835591048589215 3.39292006587698 0.908116460605751 4.14690230273853 0.747973048006653 3.89557489045134 0.835591048589215 3.64424747816416 0.908116460605751 4.39822971502571 0.747973048006653 4.14690230273853 0.835591048589215 3.89557489045134 0.908116460605751 4.64955712731289 0.747973048006653 4.39822971502571 0.835591048589215 4.14690230273853 0.908116460605751 4.90088453960008 0.747973048006653 4.64955712731289 0.835591048589215 4.39822971502571 0.908116460605751 5.15221195188726 0.747973048006653 4.90088453960008 0.835591048589215 4.64955712731289 0.908116460605751 5.40353936417445 0.747973048006653 5.15221195188726 0.835591048589215 4.90088453960008 0.908116460605751 5.65486677646163 0.747973048006653 5.40353936417445 0.835591048589215 5.15221195188726 0.908116460605751 5.90619418874881 0.747973048006653 5.65486677646163 0.835591048589215 5.40353936417445 0.908116460605751 5.90619418874881 0.835591048589215 5.65486677646163 0.908116460605751 5.90619418874881 0.908116460605751 0.314159265358979 0.0250157411660658 0.376991118430775 0.0250157411660658 0.439822971502571 0.0250157411660658 0.502654824574367 0.0250157411660658 0.565486677646163 0.0250157411660658 0.628318530717959 0.0250157411660658 0.691150383789754 0.0250157411660658 0.75398223686155 0.0250157411660658 0.816814089933346 0.0250157411660658 1.94778744522567 0.0750472234981974 2.07345115136926 0.0750472234981974 2.19911485751285 0.0750472234981974 2.32477856365645 0.0750472234981974 2.45044226980004 0.0750472234981974 3.20442450666159 0.0500314823321316 3.95840674352314 0.0250157411660658 4.02123859659493 0.0750472234981974 4.23067810683425 0.0333543215547544 4.14690230273853 0.0750472234981974 4.27256600888212 0.0750472234981974 4.39822971502571 0.0750472234981974 5.52920307031804 0.0250157411660658 5.59203492338983 0.0250157411660658 5.65486677646163 0.0250157411660658 5.71769862953342 0.0250157411660658 5.78053048260522 0.0250157411660658 5.84336233567702 0.0250157411660658 5.90619418874881 0.0250157411660658 5.96902604182061 0.0250157411660658 1.59174027781883 0.0166771607773772 1.97920337176157 0.0125078705830329 2.38761041672824 0.0250157411660658 2.41902634326414 0.0500314823321316 2.79601746169492 0.0375236117490987 3.73849525777185 0.0625393529151645 4.74380490692059 0.0250157411660658 5.12079602535136 0.0125078705830329 2.96880505764235 0.0187618058745494 3.17300858012569 0.0250157411660658 3.54999969855647 0.0125078705830329 392 287 292 393 284 290 393 390 284 393 291 390 260 240 249 260 252 240 393 296 291 394 391 285 177 168 160 394 285 291 177 160 169 394 293 391 394 298 293 395 297 292 261 39 38 395 287 293 261 40 39 395 292 287 261 41 40 395 293 297 396 393 290 116 112 107 396 296 393 261 38 253 396 290 295 396 301 296 397 394 291 397 298 394 397 291 296 116 107 110 397 303 298 398 293 298 398 297 293 398 298 302 398 302 297 263 255 238 399 295 300 399 396 295 263 238 247 180 171 159 399 301 396 399 305 301 117 103 106 400 303 397 400 296 301 400 307 303 400 397 296 401 306 302 117 113 103 401 303 306 401 298 303 401 302 298 402 304 308 402 308 305 402 305 399 180 159 168 402 399 300 264 256 225 402 300 304 403 307 400 403 310 307 181 15 14 403 301 305 264 225 234 181 16 15 403 400 301 404 306 303 404 309 306 404 303 307 181 14 172 404 307 309 265 246 255 405 305 308 405 308 312 405 312 310 405 310 403 405 403 305 406 307 310 406 310 311 406 309 307 406 311 309 407 311 310 5 3 84 407 313 311 407 312 313 118 114 111 407 310 312 118 111 115 265 257 246 408 316 315 408 314 1 408 315 314 183 157 166 183 174 157 409 316 408 267 258 90 184 145 153 267 249 258 267 90 91 409 408 1 267 260 249 410 316 409 268 42 41 410 409 1 268 43 42 410 317 316 268 41 261 120 116 110 184 175 145 411 317 410 411 410 1 185 165 174 120 110 114 270 263 247 412 411 1 185 176 165 412 317 411 412 318 317 186 169 178 186 177 169 121 79 113 121 80 79 270 247 256 122 106 109 413 318 412 413 412 1 271 264 234 271 234 243 414 318 413 414 319 318 414 413 1 272 255 263 122 117 106 272 265 255 123 118 115 415 319 414 415 414 1 189 168 177 189 180 168 274 44 43 274 45 44 416 321 320 274 46 45 416 319 415 416 415 1 123 115 119 274 43 268 416 322 321 190 17 16 190 18 17 190 19 18 416 320 319 190 16 181 417 119 115 417 115 326 418 119 417 276 256 264 276 270 256 419 124 119 277 243 252 419 119 418 277 271 243 192 183 166 420 124 419 278 263 270 192 166 175 125 114 118 193 184 153 125 120 114 421 124 420 126 113 117 421 130 124 278 272 263 422 160 151 193 153 162 422 151 143 126 121 113 280 47 46 280 48 47 280 49 48 194 174 183 127 122 109 424 178 169 280 46 274 194 185 174 195 178 187 195 186 178 127 109 112 426 187 178 426 178 424 426 424 423 282 276 264 426 423 425 128 80 121 427 187 426 282 264 271 427 426 425 128 81 80 428 196 187 428 187 427 283 252 260 428 427 425 283 277 252 129 119 124 284 278 270 429 359 358 429 363 359 198 189 177 198 177 186 430 364 363 284 270 276 430 363 429 431 364 430 431 430 2 129 123 119 199 19 190 432 364 431 199 20 19 432 431 2 199 21 20 432 368 364 199 22 21 433 432 2 433 368 432 286 49 280 434 433 2 434 368 433 286 50 49 434 369 368 286 51 50 286 52 51 435 369 434 435 434 2 201 192 175 436 374 373 436 373 369 201 175 184 436 435 2 436 369 435 436 2 374 437 416 1 288 271 277 288 282 271 131 125 118 437 324 323 131 118 123 437 322 416 437 323 322 202 162 171 437 325 324 437 326 325 289 283 260 289 91 92 289 267 91 438 437 1 289 260 267 438 417 326 290 276 282 438 418 417 438 419 418 290 284 276 132 126 117 132 117 122 438 326 437 202 193 162 439 419 438 439 420 419 440 420 439 440 421 420 441 136 130 441 440 439 441 421 440 441 143 136 133 112 116 203 183 192 203 194 183 133 127 112 441 130 421 292 52 286 292 53 52 204 187 196 442 424 169 292 54 53 204 195 187 442 423 424 442 169 160 443 349 348 443 348 196 443 428 425 134 121 126 443 425 423 443 196 428 134 128 121 444 443 423 294 277 283 444 353 349 294 288 277 444 354 353 444 349 443 444 358 354 444 429 358 444 2 430 444 430 429 295 290 282 445 439 438 295 282 288 445 441 439 445 143 441 445 422 143 135 129 124 446 422 445 135 124 130 447 445 438 447 1 2 207 186 195 447 423 442 207 198 186 447 2 444 447 422 446 447 446 445 447 160 422 208 23 22 447 438 1 208 24 23 447 442 160 447 444 423 208 22 199 297 55 54 297 56 55 297 57 56 297 54 292 137 81 128 137 82 81 210 201 184 299 294 283 138 131 123 299 283 289 299 289 92 299 92 93 300 295 288 300 288 294 210 184 193 138 123 129 211 171 180 302 58 57 302 59 58 211 202 171 302 60 59 139 132 122 139 122 127 212 192 201 302 57 297 212 203 192 304 294 299 140 133 116 304 300 294 213 196 205 140 116 120 213 204 196 304 299 93 304 93 94 141 126 132 306 61 60 141 134 126 306 62 61 142 130 136 306 60 302 216 207 195 216 195 204 142 135 130 308 304 94 217 25 24 308 94 95 217 26 25 217 27 26 309 63 62 217 24 208 309 64 63 309 65 64 309 62 306 219 210 193 311 65 309 311 66 65 311 67 66 311 68 67 219 193 202 145 129 135 220 180 189 312 308 95 312 95 96 313 312 96 313 69 68 145 138 129 313 70 69 313 71 70 313 68 311 313 97 71 313 96 97 220 211 180 146 82 137 314 98 73 221 212 201 314 72 1 314 73 72 146 83 82 147 139 127 315 98 314 316 98 315 221 201 210 316 100 98 222 205 214 222 213 205 147 127 133 317 100 316 148 140 120 318 102 100 318 100 317 4 71 97 148 120 125 319 102 318 149 132 139 225 204 213 320 102 319 225 216 204 320 105 102 226 28 27 149 141 132 226 29 28 226 30 29 150 136 143 226 27 217 150 142 136 98 74 73 321 105 320 322 105 321 228 202 211 322 108 105 99 74 98 99 75 74 99 76 75 228 219 202 99 77 76 229 220 189 323 108 322 229 189 198 153 135 142 324 108 323 153 145 135 324 111 108 325 111 324 230 210 219 154 6 5 230 221 210 154 7 6 154 8 7 231 222 214 231 214 223 154 5 84 154 83 146 154 84 83 326 115 111 101 99 98 326 111 325 327 137 128 327 144 137 327 128 134 328 134 141 328 152 144 156 147 133 328 327 134 101 98 100 328 144 327 156 133 140 329 155 146 329 146 137 329 137 144 330 141 149 330 161 152 330 328 141 330 152 328 331 144 152 331 155 329 331 329 144 234 225 213 331 164 155 234 213 222 332 146 155 332 154 146 332 163 154 332 155 163 333 170 161 333 330 149 235 31 30 333 149 158 235 32 31 333 161 330 235 33 32 334 331 152 334 152 161 235 30 226 334 164 331 334 173 164 335 164 172 335 172 163 157 148 125 335 163 155 335 155 164 157 125 131 336 333 158 158 139 147 336 179 170 103 77 99 336 170 333 103 78 77 336 158 167 337 161 170 104 100 102 337 334 161 337 173 334 237 211 220 104 101 100 337 182 173 338 172 164 338 173 181 158 149 139 338 164 173 338 181 172 339 167 176 339 188 179 159 150 143 339 179 336 339 336 167 340 182 337 340 170 179 237 228 211 340 337 170 159 143 151 340 191 182 341 173 182 341 181 173 238 229 198 341 182 190 341 190 181 342 188 339 342 176 185 342 197 188 342 339 176 343 340 179 343 191 340 343 179 188 238 198 207 343 200 191 344 199 190 344 190 182 344 182 191 239 230 219 344 191 199 345 206 197 345 342 185 239 219 228 345 197 342 345 185 194 346 343 188 346 200 343 346 209 200 346 188 197 347 208 199 347 200 208 347 199 191 347 191 200 240 223 232 162 153 142 240 231 223 162 142 150 348 205 196 106 103 99 349 214 205 106 99 101 349 205 348 163 9 8 107 104 102 350 194 203 163 10 9 350 345 194 163 11 10 350 215 206 350 206 345 163 8 154 351 197 206 351 218 209 351 346 197 351 209 346 352 208 200 352 200 209 352 209 217 352 217 208 243 222 231 353 214 349 243 234 222 354 223 214 244 34 33 354 214 353 244 35 34 355 350 203 244 33 235 355 224 215 355 215 350 107 102 105 355 203 212 356 351 206 165 140 148 165 156 140 356 206 215 356 218 351 356 227 218 166 131 138 357 209 218 166 157 131 357 218 226 357 217 209 357 226 217 358 223 354 359 232 223 359 223 358 246 237 220 360 233 224 360 224 355 360 355 212 246 220 229 360 212 221 361 236 227 167 147 156 361 215 224 247 207 216 361 356 215 361 227 356 247 238 207 362 226 218 362 218 227 362 235 226 362 227 235 167 158 147 363 232 359 364 241 232 109 101 104 168 159 151 364 232 363 109 106 101 168 151 160 365 221 230 365 360 221 365 242 233 365 233 360 366 245 236 366 224 233 366 236 361 366 361 224 248 228 237 367 227 236 367 244 235 248 239 228 367 236 244 249 232 241 367 235 227 368 241 364 249 240 232 369 250 241 369 241 368 110 105 108 370 251 242 250 86 87 110 107 105 370 230 239 370 365 230 370 242 365 371 254 245 371 366 233 371 245 366 371 233 242 372 253 244 372 236 245 372 245 253 372 244 236 252 243 231 373 250 369 374 250 373 374 86 250 252 231 240 374 2 85 374 85 86 375 251 370 375 239 248 171 150 159 253 36 35 375 259 251 253 37 36 375 370 239 253 38 37 171 162 150 376 371 242 376 254 371 376 242 251 253 35 244 376 262 254 172 12 11 172 13 12 112 109 104 377 245 254 172 14 13 377 253 245 377 254 261 377 261 253 378 375 248 172 11 163 378 259 375 378 266 259 378 248 257 379 376 251 255 246 229 112 104 107 379 262 376 379 251 259 255 229 238 379 269 262 380 261 254 380 268 261 113 78 103 380 254 262 380 262 268 381 273 266 381 266 378 381 378 257 381 257 265 382 259 266 382 379 259 256 247 216 382 269 379 113 79 78 382 275 269 383 269 274 383 274 268 174 148 157 383 268 262 383 262 269 174 165 148 384 265 272 256 216 225 384 381 265 384 273 381 175 166 138 384 279 273 175 138 145 385 266 273 385 281 275 385 275 382 385 382 266 386 274 269 257 248 237 386 275 280 386 269 275 386 280 274 387 272 278 387 285 279 387 279 384 387 384 272 388 385 273 176 167 156 114 108 111 388 287 281 257 237 246 114 110 108 388 281 385 258 241 250 388 273 279 258 249 241 389 280 275 258 250 87 389 286 280 389 275 281 389 281 286 258 87 88 390 285 387 258 88 89 390 278 284 258 89 90 390 291 285 390 387 278 176 156 165 391 279 285 391 293 287 391 388 279 391 287 388 392 292 286 392 286 281 392 281 287 

TShapes 9
Ve
1e-07
0 36.48732 0
0 0

0101101
*
Ed
 1e-07 1 1 1
2  1 1 0 0 6.28318530717959
6  1 1 0
0

0101000
+9 4 -9 4 *
Ve
1e-07
37 4.741403 0
0 0

0101101
*
Ed
 1e-07 1 1 0
1  1 0 0 6.28318530717959
2  2 1 0 0 6.28318530717959
6  2 1 0
0

0101000
+7 4 -7 4 *
Ed
 1e-07 1 1 0
1  2 0 0 1
3  3 4C2 1 5 0 1
7  3 4 1 5
0

0101000
+9 0 -7 0 *
Wi

0101100
+8 0 -6 0 -5 4 +5 4 *
Fa
0  1e-07 1 0
2  1
0111000
+4 0 *
Sh

0101000
+3 0 *
Co

1100000
+2 1 *

+1 0 